%TF.GenerationSoftware,KiCad,Pcbnew,7.0.7*%
%TF.CreationDate,2024-04-15T18:53:03+09:00*%
%TF.ProjectId,ALTAIR_SERVO_MODULE_V3,414c5441-4952-45f5-9345-52564f5f4d4f,rev?*%
%TF.SameCoordinates,Original*%
%TF.FileFunction,Paste,Top*%
%TF.FilePolarity,Positive*%
%FSLAX46Y46*%
G04 Gerber Fmt 4.6, Leading zero omitted, Abs format (unit mm)*
G04 Created by KiCad (PCBNEW 7.0.7) date 2024-04-15 18:53:03*
%MOMM*%
%LPD*%
G01*
G04 APERTURE LIST*
G04 Aperture macros list*
%AMRoundRect*
0 Rectangle with rounded corners*
0 $1 Rounding radius*
0 $2 $3 $4 $5 $6 $7 $8 $9 X,Y pos of 4 corners*
0 Add a 4 corners polygon primitive as box body*
4,1,4,$2,$3,$4,$5,$6,$7,$8,$9,$2,$3,0*
0 Add four circle primitives for the rounded corners*
1,1,$1+$1,$2,$3*
1,1,$1+$1,$4,$5*
1,1,$1+$1,$6,$7*
1,1,$1+$1,$8,$9*
0 Add four rect primitives between the rounded corners*
20,1,$1+$1,$2,$3,$4,$5,0*
20,1,$1+$1,$4,$5,$6,$7,0*
20,1,$1+$1,$6,$7,$8,$9,0*
20,1,$1+$1,$8,$9,$2,$3,0*%
G04 Aperture macros list end*
%ADD10RoundRect,0.200000X0.200000X0.275000X-0.200000X0.275000X-0.200000X-0.275000X0.200000X-0.275000X0*%
%ADD11RoundRect,0.218750X-0.218750X-0.256250X0.218750X-0.256250X0.218750X0.256250X-0.218750X0.256250X0*%
%ADD12R,1.200000X0.800000*%
%ADD13RoundRect,0.225000X-0.225000X-0.250000X0.225000X-0.250000X0.225000X0.250000X-0.225000X0.250000X0*%
%ADD14RoundRect,0.200000X-0.275000X0.200000X-0.275000X-0.200000X0.275000X-0.200000X0.275000X0.200000X0*%
%ADD15R,1.525000X0.650000*%
%ADD16RoundRect,0.250000X-1.000000X1.750000X-1.000000X-1.750000X1.000000X-1.750000X1.000000X1.750000X0*%
G04 APERTURE END LIST*
D10*
%TO.C,R10*%
X128828000Y-101541870D03*
X127178000Y-101541870D03*
%TD*%
D11*
%TO.C,LED3*%
X124155000Y-50800000D03*
X125730000Y-50800000D03*
%TD*%
D12*
%TO.C,IC1*%
X131114000Y-72781740D03*
X131114000Y-75321740D03*
X137414000Y-75321740D03*
X137414000Y-74051740D03*
X137414000Y-72781740D03*
%TD*%
D13*
%TO.C,C15*%
X140004000Y-91127870D03*
X141554000Y-91127870D03*
%TD*%
D10*
%TO.C,R6*%
X128828000Y-80459870D03*
X127178000Y-80459870D03*
%TD*%
%TO.C,R12*%
X128828000Y-112209870D03*
X127178000Y-112209870D03*
%TD*%
D13*
%TO.C,C18*%
X140004000Y-106875870D03*
X141554000Y-106875870D03*
%TD*%
D12*
%TO.C,IC8*%
X131114000Y-109662710D03*
X131114000Y-112202710D03*
X137414000Y-112202710D03*
X137414000Y-110932710D03*
X137414000Y-109662710D03*
%TD*%
D10*
%TO.C,R9*%
X128828000Y-96461870D03*
X127178000Y-96461870D03*
%TD*%
%TO.C,R5*%
X128700000Y-75379870D03*
X127050000Y-75379870D03*
%TD*%
D14*
%TO.C,R1*%
X135890000Y-53976000D03*
X135890000Y-55626000D03*
%TD*%
D10*
%TO.C,R7*%
X128828000Y-85793870D03*
X127178000Y-85793870D03*
%TD*%
D13*
%TO.C,C13*%
X140030000Y-80713870D03*
X141580000Y-80713870D03*
%TD*%
D12*
%TO.C,IC2*%
X131114000Y-78050450D03*
X131114000Y-80590450D03*
X137414000Y-80590450D03*
X137414000Y-79320450D03*
X137414000Y-78050450D03*
%TD*%
D10*
%TO.C,R8*%
X128828000Y-91127870D03*
X127178000Y-91127870D03*
%TD*%
D14*
%TO.C,R3*%
X125730000Y-53976000D03*
X125730000Y-55626000D03*
%TD*%
D12*
%TO.C,IC3*%
X131114000Y-83319160D03*
X131114000Y-85859160D03*
X137414000Y-85859160D03*
X137414000Y-84589160D03*
X137414000Y-83319160D03*
%TD*%
D13*
%TO.C,C16*%
X140004000Y-96461870D03*
X141554000Y-96461870D03*
%TD*%
%TO.C,C17*%
X140004000Y-101541870D03*
X141554000Y-101541870D03*
%TD*%
%TO.C,C19*%
X140004000Y-112209870D03*
X141554000Y-112209870D03*
%TD*%
%TO.C,C12*%
X140030000Y-75379870D03*
X141580000Y-75379870D03*
%TD*%
D15*
%TO.C,S2*%
X161581000Y-121920000D03*
X161581000Y-123190000D03*
X161581000Y-124460000D03*
X161581000Y-125730000D03*
X167005000Y-125730000D03*
X167005000Y-124460000D03*
X167005000Y-123190000D03*
X167005000Y-121920000D03*
%TD*%
D16*
%TO.C,C9*%
X177800000Y-83122000D03*
X177800000Y-91122000D03*
%TD*%
D13*
%TO.C,C14*%
X140004000Y-85793870D03*
X141554000Y-85793870D03*
%TD*%
D12*
%TO.C,IC5*%
X131114000Y-93856580D03*
X131114000Y-96396580D03*
X137414000Y-96396580D03*
X137414000Y-95126580D03*
X137414000Y-93856580D03*
%TD*%
%TO.C,IC6*%
X131114000Y-99125290D03*
X131114000Y-101665290D03*
X137414000Y-101665290D03*
X137414000Y-100395290D03*
X137414000Y-99125290D03*
%TD*%
%TO.C,IC4*%
X131114000Y-88587870D03*
X131114000Y-91127870D03*
X137414000Y-91127870D03*
X137414000Y-89857870D03*
X137414000Y-88587870D03*
%TD*%
D11*
%TO.C,LED1*%
X134315000Y-50800000D03*
X135890000Y-50800000D03*
%TD*%
D12*
%TO.C,IC7*%
X131114000Y-104394000D03*
X131114000Y-106934000D03*
X137414000Y-106934000D03*
X137414000Y-105664000D03*
X137414000Y-104394000D03*
%TD*%
D10*
%TO.C,R11*%
X128828000Y-106875870D03*
X127178000Y-106875870D03*
%TD*%
M02*
