%TF.GenerationSoftware,KiCad,Pcbnew,7.0.7*%
%TF.CreationDate,2024-04-15T18:53:03+09:00*%
%TF.ProjectId,ALTAIR_SERVO_MODULE_V3,414c5441-4952-45f5-9345-52564f5f4d4f,rev?*%
%TF.SameCoordinates,Original*%
%TF.FileFunction,Soldermask,Bot*%
%TF.FilePolarity,Negative*%
%FSLAX46Y46*%
G04 Gerber Fmt 4.6, Leading zero omitted, Abs format (unit mm)*
G04 Created by KiCad (PCBNEW 7.0.7) date 2024-04-15 18:53:03*
%MOMM*%
%LPD*%
G01*
G04 APERTURE LIST*
G04 Aperture macros list*
%AMRoundRect*
0 Rectangle with rounded corners*
0 $1 Rounding radius*
0 $2 $3 $4 $5 $6 $7 $8 $9 X,Y pos of 4 corners*
0 Add a 4 corners polygon primitive as box body*
4,1,4,$2,$3,$4,$5,$6,$7,$8,$9,$2,$3,0*
0 Add four circle primitives for the rounded corners*
1,1,$1+$1,$2,$3*
1,1,$1+$1,$4,$5*
1,1,$1+$1,$6,$7*
1,1,$1+$1,$8,$9*
0 Add four rect primitives between the rounded corners*
20,1,$1+$1,$2,$3,$4,$5,0*
20,1,$1+$1,$4,$5,$6,$7,0*
20,1,$1+$1,$6,$7,$8,$9,0*
20,1,$1+$1,$8,$9,$2,$3,0*%
G04 Aperture macros list end*
%ADD10O,2.000000X2.800000*%
%ADD11RoundRect,0.250000X0.725000X-0.600000X0.725000X0.600000X-0.725000X0.600000X-0.725000X-0.600000X0*%
%ADD12O,1.950000X1.700000*%
%ADD13R,2.000000X0.900000*%
%ADD14RoundRect,1.025000X-1.025000X1.025000X-1.025000X-1.025000X1.025000X-1.025000X1.025000X1.025000X0*%
%ADD15C,4.100000*%
%ADD16O,2.800000X2.000000*%
%ADD17RoundRect,0.250000X-0.600000X-0.725000X0.600000X-0.725000X0.600000X0.725000X-0.600000X0.725000X0*%
%ADD18O,1.700000X1.950000*%
%ADD19C,3.200000*%
%ADD20R,1.600000X1.500000*%
%ADD21C,1.600000*%
%ADD22C,3.000000*%
%ADD23R,1.600000X1.600000*%
%ADD24C,4.000000*%
%ADD25C,1.700000*%
G04 APERTURE END LIST*
D10*
%TO.C,J7*%
X199180000Y-123190000D03*
D11*
X192680000Y-125690000D03*
D12*
X192680000Y-123190000D03*
X192680000Y-120690000D03*
%TD*%
D13*
%TO.C,J9*%
X193040000Y-70955000D03*
X193040000Y-84455000D03*
D14*
X187040000Y-74105000D03*
D15*
X187040000Y-81305000D03*
%TD*%
D16*
%TO.C,J5*%
X168275000Y-139215000D03*
D17*
X165775000Y-132715000D03*
D18*
X168275000Y-132715000D03*
X170775000Y-132715000D03*
%TD*%
D16*
%TO.C,J4*%
X156225000Y-139215000D03*
D17*
X153725000Y-132715000D03*
D18*
X156225000Y-132715000D03*
X158725000Y-132715000D03*
%TD*%
D16*
%TO.C,J3*%
X144175000Y-139215000D03*
D17*
X141675000Y-132715000D03*
D18*
X144175000Y-132715000D03*
X146675000Y-132715000D03*
%TD*%
D19*
%TO.C,REF\u002A\u002A*%
X200000000Y-50000000D03*
%TD*%
%TO.C,REF\u002A\u002A*%
X200000000Y-140000000D03*
%TD*%
%TO.C,REF\u002A\u002A*%
X110000000Y-50000000D03*
%TD*%
D16*
%TO.C,J1*%
X120075000Y-139215000D03*
D17*
X117575000Y-132715000D03*
D18*
X120075000Y-132715000D03*
X122575000Y-132715000D03*
%TD*%
D16*
%TO.C,J6*%
X180315000Y-139215000D03*
D17*
X177815000Y-132715000D03*
D18*
X180315000Y-132715000D03*
X182815000Y-132715000D03*
%TD*%
D20*
%TO.C,J11*%
X173045000Y-59970000D03*
D21*
X170545000Y-59970000D03*
X168545000Y-59970000D03*
X166045000Y-59970000D03*
D22*
X176115000Y-57260000D03*
X162975000Y-57260000D03*
%TD*%
D23*
%TO.C,J12*%
X186075000Y-62032500D03*
D21*
X188575000Y-62032500D03*
X188575000Y-60032500D03*
X186075000Y-60032500D03*
D24*
X181325000Y-57172500D03*
X193325000Y-57172500D03*
%TD*%
D16*
%TO.C,J2*%
X132125000Y-139215000D03*
D17*
X129625000Y-132715000D03*
D18*
X132125000Y-132715000D03*
X134625000Y-132715000D03*
%TD*%
D17*
%TO.C,J13*%
X166370000Y-67945000D03*
D18*
X168870000Y-67945000D03*
X171370000Y-67945000D03*
X173870000Y-67945000D03*
%TD*%
D10*
%TO.C,J8*%
X199180000Y-111140000D03*
D11*
X192680000Y-113640000D03*
D12*
X192680000Y-111140000D03*
X192680000Y-108640000D03*
%TD*%
D19*
%TO.C,REF\u002A\u002A*%
X110000000Y-140000000D03*
%TD*%
D25*
%TO.C,U2*%
X125520786Y-122104214D03*
X117900786Y-124644214D03*
X122980786Y-122104214D03*
X117900786Y-63684214D03*
X115360786Y-124644214D03*
X150920786Y-124644214D03*
X138220786Y-122104214D03*
X117900786Y-61144214D03*
X115360786Y-122104214D03*
X130600786Y-122104214D03*
X128060786Y-122104214D03*
X143300786Y-122104214D03*
X145840786Y-122104214D03*
X153460786Y-63684214D03*
X156000786Y-63684214D03*
X148380786Y-122104214D03*
X122980786Y-63684214D03*
X125520786Y-63684214D03*
X128060786Y-63684214D03*
X138220786Y-63684214D03*
X135680786Y-63684214D03*
X150920786Y-63684214D03*
X125520786Y-61144214D03*
X122980786Y-61144214D03*
X125520786Y-124644214D03*
X128060786Y-124644214D03*
X130600786Y-124644214D03*
X112820786Y-122104214D03*
X145840786Y-124644214D03*
X148380786Y-124644214D03*
X150920786Y-122104214D03*
X138220786Y-61144214D03*
X135680786Y-61144214D03*
X148380786Y-63684214D03*
X143300786Y-63684214D03*
X145840786Y-63684214D03*
X130600786Y-63684214D03*
X135680786Y-124644214D03*
X112820786Y-63684214D03*
X115360786Y-63684214D03*
X140760786Y-63684214D03*
X128060786Y-61144214D03*
X145840786Y-61144214D03*
X143300786Y-61144214D03*
X140760786Y-61144214D03*
X156000786Y-122104214D03*
X153460786Y-122104214D03*
X153460786Y-124644214D03*
X156000786Y-124644214D03*
X150920786Y-61144214D03*
X115360786Y-61144214D03*
X112820786Y-61144214D03*
X133140786Y-63684214D03*
X110280786Y-61144214D03*
X110280786Y-63684214D03*
X110280786Y-124644214D03*
X110280786Y-122104214D03*
X112820786Y-124644214D03*
X138220786Y-124644214D03*
X140760786Y-124644214D03*
X143300786Y-124644214D03*
X133140786Y-124644214D03*
X117900786Y-122104214D03*
X133140786Y-122104214D03*
X135680786Y-122104214D03*
X120440786Y-63684214D03*
X133140786Y-61144214D03*
X148380786Y-61144214D03*
X122980786Y-124644214D03*
X120440786Y-122104214D03*
X120440786Y-124644214D03*
X140760786Y-122104214D03*
X120440786Y-61144214D03*
X130600786Y-61144214D03*
X153460786Y-61144214D03*
X156000786Y-61144214D03*
%TD*%
D11*
%TO.C,J14*%
X199898000Y-65158000D03*
D12*
X199898000Y-62658000D03*
X199898000Y-60158000D03*
X199898000Y-57658000D03*
%TD*%
D13*
%TO.C,J15*%
X193040000Y-89135000D03*
X193040000Y-102635000D03*
D14*
X187040000Y-92285000D03*
D15*
X187040000Y-99485000D03*
%TD*%
M02*
