M48
; DRILL file {KiCad 7.0.7} date Mon Apr 15 18:53:05 2024
; FORMAT={-:-/ absolute / metric / decimal}
; #@! TF.CreationDate,2024-04-15T18:53:05+09:00
; #@! TF.GenerationSoftware,Kicad,Pcbnew,7.0.7
; #@! TF.FileFunction,MixedPlating,1,2
FMAT,2
METRIC
; #@! TA.AperFunction,Plated,PTH,ViaDrill
T1C0.300
; #@! TA.AperFunction,Plated,PTH,ComponentDrill
T2C0.600
; #@! TA.AperFunction,Plated,PTH,ComponentDrill
T3C0.950
; #@! TA.AperFunction,Plated,PTH,ComponentDrill
T4C1.000
; #@! TA.AperFunction,Plated,PTH,ComponentDrill
T5C2.300
; #@! TA.AperFunction,Plated,PTH,ComponentDrill
T6C2.700
; #@! TA.AperFunction,NonPlated,NPTH,ComponentDrill
T7C2.000
; #@! TA.AperFunction,NonPlated,NPTH,ComponentDrill
T8C3.200
%
G90
G05
T1
X106.68Y-134.62
X107.442Y-56.388
X107.95Y-96.266
X108.712Y-98.298
X109.22Y-132.08
X109.22Y-137.16
X110.236Y-106.426
X110.236Y-112.199
X111.506Y-78.994
X111.506Y-112.776
X111.76Y-68.58
X111.76Y-73.66
X111.76Y-134.62
X112.776Y-85.852
X114.3Y-66.04
X114.3Y-71.12
X114.3Y-83.82
X114.3Y-88.9
X114.3Y-93.98
X114.3Y-99.06
X114.3Y-109.22
X114.3Y-132.08
X114.3Y-137.16
X114.3Y-142.24
X115.316Y-90.678
X116.84Y-68.58
X116.84Y-78.74
X116.84Y-91.44
X116.84Y-101.6
X116.84Y-116.84
X116.84Y-139.7
X119.38Y-66.04
X119.38Y-76.2
X119.38Y-83.82
X119.38Y-88.9
X119.38Y-93.98
X119.38Y-99.06
X119.38Y-104.14
X119.38Y-109.22
X119.38Y-114.3
X119.38Y-142.24
X121.92Y-68.58
X121.92Y-73.66
X121.92Y-78.74
X121.92Y-91.44
X121.92Y-101.6
X121.92Y-116.84
X124.206Y-101.6
X124.46Y-66.04
X124.46Y-109.22
X124.46Y-114.3
X124.46Y-119.38
X124.46Y-142.24
X125.73Y-70.358
X127.0Y-78.74
X127.0Y-116.84
X127.0Y-139.7
X129.54Y-114.3
X129.54Y-119.38
X129.54Y-142.24
X132.08Y-116.84
X134.62Y-66.04
X134.62Y-119.38
X134.62Y-142.24
X137.16Y-68.58
X137.16Y-116.84
X137.16Y-139.7
X138.684Y-75.438
X138.684Y-80.518
X138.684Y-85.852
X138.684Y-90.932
X138.684Y-96.52
X138.684Y-101.6
X138.684Y-106.934
X138.684Y-112.268
X139.7Y-66.04
X139.7Y-119.38
X139.7Y-142.24
X141.986Y-84.582
X142.24Y-68.58
X142.24Y-116.84
X142.24Y-139.7
X144.78Y-66.04
X144.78Y-76.2
X144.78Y-81.28
X144.78Y-86.36
X144.78Y-91.44
X144.78Y-96.52
X144.78Y-101.6
X144.78Y-106.68
X144.78Y-111.76
X144.78Y-119.38
X144.78Y-142.24
X147.32Y-68.58
X147.32Y-78.74
X147.32Y-83.82
X147.32Y-88.9
X147.32Y-93.98
X147.32Y-99.06
X147.32Y-104.14
X147.32Y-109.22
X147.32Y-116.84
X147.32Y-139.7
X149.86Y-66.04
X149.86Y-76.2
X149.86Y-81.28
X149.86Y-86.36
X149.86Y-91.44
X149.86Y-96.52
X149.86Y-101.6
X149.86Y-106.68
X149.86Y-111.76
X149.86Y-119.38
X149.86Y-142.24
X152.4Y-68.58
X152.4Y-78.74
X152.4Y-83.82
X152.4Y-88.9
X152.4Y-93.98
X152.4Y-99.06
X152.4Y-104.14
X152.4Y-109.22
X152.4Y-116.84
X152.4Y-139.7
X154.94Y-76.2
X154.94Y-81.28
X154.94Y-86.36
X154.94Y-91.44
X154.94Y-96.52
X154.94Y-101.6
X154.94Y-106.68
X154.94Y-111.76
X154.94Y-119.38
X154.94Y-142.24
X157.48Y-78.74
X157.48Y-83.82
X157.48Y-88.9
X157.48Y-93.98
X157.48Y-99.06
X157.48Y-104.14
X157.48Y-109.22
X157.48Y-116.84
X158.115Y-90.043
X159.766Y-125.73
X160.02Y-119.38
X160.02Y-142.24
X160.528Y-105.664
X161.544Y-104.14
X161.544Y-106.68
X162.306Y-113.284
X162.56Y-116.84
X162.56Y-139.7
X162.814Y-95.25
X163.83Y-104.14
X163.83Y-106.68
X165.1Y-119.38
X165.1Y-142.24
X165.481Y-113.411
X167.088Y-114.046
X167.64Y-100.33
X167.64Y-104.394
X167.64Y-109.982
X167.64Y-120.65
X168.91Y-100.33
X168.91Y-104.394
X168.91Y-109.982
X170.18Y-142.24
X171.45Y-71.374
X172.72Y-93.98
X172.72Y-99.06
X172.72Y-109.22
X172.72Y-139.7
X175.26Y-96.52
X175.26Y-101.6
X175.26Y-111.76
X175.26Y-142.24
X177.8Y-93.98
X177.8Y-99.06
X177.8Y-104.14
X177.8Y-109.22
X177.8Y-139.7
X180.34Y-96.52
X180.34Y-101.6
X180.34Y-106.68
X180.34Y-111.76
X180.34Y-121.92
X180.34Y-127.0
X180.34Y-142.24
X182.88Y-93.98
X182.88Y-99.06
X182.88Y-104.14
X182.88Y-109.22
X182.88Y-114.3
X182.88Y-119.38
X182.88Y-124.46
X182.88Y-129.54
X182.88Y-139.7
X185.166Y-67.818
X185.42Y-96.52
X185.42Y-106.68
X185.42Y-111.76
X185.42Y-121.92
X185.42Y-127.0
X185.42Y-142.24
X186.182Y-65.278
X187.96Y-109.22
X187.96Y-114.3
X187.96Y-119.38
X187.96Y-124.46
X187.96Y-129.54
X187.96Y-139.7
X190.5Y-73.66
X190.5Y-76.2
X190.5Y-106.68
X190.5Y-121.92
X190.5Y-127.0
X190.5Y-132.08
X190.5Y-142.24
X191.262Y-117.348
X193.04Y-73.66
X193.04Y-76.2
X193.04Y-129.54
X193.04Y-139.7
X195.58Y-73.66
X195.58Y-76.2
X195.58Y-137.16
X198.12Y-73.66
X198.12Y-76.2
X198.12Y-134.62
X200.66Y-121.92
X200.66Y-127.0
X200.66Y-132.08
X203.2Y-73.66
X203.2Y-78.74
X203.2Y-83.82
X203.2Y-88.9
X203.2Y-93.98
X203.2Y-99.06
X203.2Y-104.14
X203.2Y-109.22
X203.2Y-114.3
X203.2Y-119.38
X203.2Y-124.46
X203.2Y-129.54
X203.2Y-134.62
T3
X117.575Y-132.715
X120.075Y-132.715
X122.575Y-132.715
X129.625Y-132.715
X132.125Y-132.715
X134.625Y-132.715
X141.675Y-132.715
X144.175Y-132.715
X146.675Y-132.715
X153.725Y-132.715
X156.225Y-132.715
X158.725Y-132.715
X165.775Y-132.715
X166.045Y-59.97
X166.37Y-67.945
X168.275Y-132.715
X168.545Y-59.97
X168.87Y-67.945
X170.545Y-59.97
X170.775Y-132.715
X171.37Y-67.945
X173.045Y-59.97
X173.87Y-67.945
X177.815Y-132.715
X180.315Y-132.715
X182.815Y-132.715
X186.075Y-60.032
X186.075Y-62.032
X188.575Y-60.032
X188.575Y-62.032
X192.68Y-108.64
X192.68Y-111.14
X192.68Y-113.64
X192.68Y-120.69
X192.68Y-123.19
X192.68Y-125.69
X199.898Y-57.658
X199.898Y-60.158
X199.898Y-62.658
X199.898Y-65.158
T4
X110.281Y-61.144
X110.281Y-63.684
X110.281Y-122.104
X110.281Y-124.644
X112.821Y-61.144
X112.821Y-63.684
X112.821Y-122.104
X112.821Y-124.644
X115.361Y-61.144
X115.361Y-63.684
X115.361Y-122.104
X115.361Y-124.644
X117.901Y-61.144
X117.901Y-63.684
X117.901Y-122.104
X117.901Y-124.644
X120.441Y-61.144
X120.441Y-63.684
X120.441Y-122.104
X120.441Y-124.644
X122.981Y-61.144
X122.981Y-63.684
X122.981Y-122.104
X122.981Y-124.644
X125.521Y-61.144
X125.521Y-63.684
X125.521Y-122.104
X125.521Y-124.644
X128.061Y-61.144
X128.061Y-63.684
X128.061Y-122.104
X128.061Y-124.644
X130.601Y-61.144
X130.601Y-63.684
X130.601Y-122.104
X130.601Y-124.644
X133.141Y-61.144
X133.141Y-63.684
X133.141Y-122.104
X133.141Y-124.644
X135.681Y-61.144
X135.681Y-63.684
X135.681Y-122.104
X135.681Y-124.644
X138.221Y-61.144
X138.221Y-63.684
X138.221Y-122.104
X138.221Y-124.644
X140.761Y-61.144
X140.761Y-63.684
X140.761Y-122.104
X140.761Y-124.644
X143.301Y-61.144
X143.301Y-63.684
X143.301Y-122.104
X143.301Y-124.644
X145.841Y-61.144
X145.841Y-63.684
X145.841Y-122.104
X145.841Y-124.644
X148.381Y-61.144
X148.381Y-63.684
X148.381Y-122.104
X148.381Y-124.644
X150.921Y-61.144
X150.921Y-63.684
X150.921Y-122.104
X150.921Y-124.644
X153.461Y-61.144
X153.461Y-63.684
X153.461Y-122.104
X153.461Y-124.644
X156.001Y-61.144
X156.001Y-63.684
X156.001Y-122.104
X156.001Y-124.644
T5
X162.975Y-57.26
X176.115Y-57.26
X181.325Y-57.172
X193.325Y-57.172
T6
X187.04Y-74.105
X187.04Y-81.305
X187.04Y-92.285
X187.04Y-99.485
T8
X110.0Y-50.0
X110.0Y-140.0
X200.0Y-50.0
X200.0Y-140.0
T2
G00X193.59Y-70.955
M15
G01X192.49Y-70.955
M16
G05
G00X193.59Y-84.455
M15
G01X192.49Y-84.455
M16
G05
G00X193.59Y-89.135
M15
G01X192.49Y-89.135
M16
G05
G00X193.59Y-102.635
M15
G01X192.49Y-102.635
M16
G05
T7
G00X119.675Y-139.215
M15
G01X120.475Y-139.215
M16
G05
G00X131.725Y-139.215
M15
G01X132.525Y-139.215
M16
G05
G00X143.775Y-139.215
M15
G01X144.575Y-139.215
M16
G05
G00X155.825Y-139.215
M15
G01X156.625Y-139.215
M16
G05
G00X167.875Y-139.215
M15
G01X168.675Y-139.215
M16
G05
G00X179.915Y-139.215
M15
G01X180.715Y-139.215
M16
G05
G00X199.18Y-111.54
M15
G01X199.18Y-110.74
M16
G05
G00X199.18Y-123.59
M15
G01X199.18Y-122.79
M16
G05
T0
M30
